<?xml version="1.0" encoding="UTF-8"?>
<svg id="Layer_2" data-name="Layer 2" xmlns="http://www.w3.org/2000/svg" viewBox="0 0 308.5 55.05">
  <defs>
    <style>
      .cls-1, .cls-2, .cls-3, .cls-4 {
        stroke: #1f1f1f;
        stroke-miterlimit: 10;
        stroke-width: 1.59px;
      }

      .cls-1, .cls-5 {
        fill: #f35325;
      }

      .cls-6 {
        fill: #fff;
      }

      .cls-2, .cls-7 {
        fill: #ffba08;
      }

      .cls-8, .cls-3 {
        fill: #81bc06;
      }

      .cls-9, .cls-4 {
        fill: #05a6f0;
      }
    </style>
  </defs>
  <g id="Layer_1-2" data-name="Layer 1">
    <g>
      <g>
        <path class="cls-6" d="m130.93,21.66l3.49,10.88,3.48-10.88h4.96v15.64h-3.78v-3.65l.37-7.48-3.78,11.13h-2.49l-3.79-11.14.37,7.49v3.65h-3.77v-15.64h4.95Z"/>
        <path class="cls-6" d="m148.9,37.3h-3.76v-15.64h3.76v15.64Z"/>
        <path class="cls-6" d="m156.46,31.48l-1.55,1.7v4.12h-3.77v-15.64h3.77v6.9l1.31-1.99,3.37-4.91h4.66l-5.29,6.92,5.29,8.72h-4.47l-3.33-5.82Z"/>
        <path class="cls-6" d="m174.55,30.66h-5.93v3.74h7v2.9h-10.77v-15.64h10.8v2.91h-7.03v3.3h5.93v2.79Z"/>
        <path class="cls-6" d="m177.9,26.56l-1.59-.86c.59-1.03.9-2.04.91-3.03v-1.87h2.64v1.75c0,.67-.19,1.38-.58,2.13-.38.76-.85,1.38-1.39,1.87Z"/>
        <path class="cls-6" d="m189.81,33.14c0-.55-.2-.98-.59-1.29-.39-.31-1.08-.63-2.06-.96-.98-.33-1.78-.65-2.41-.96-2.03-1-3.04-2.36-3.04-4.1,0-.87.25-1.63.76-2.29.5-.66,1.22-1.18,2.14-1.55.92-.37,1.96-.55,3.12-.55s2.13.2,3.02.6c.89.4,1.58.97,2.08,1.71s.74,1.59.74,2.54h-3.76c0-.64-.2-1.13-.59-1.48-.39-.35-.92-.53-1.58-.53s-1.21.15-1.6.45c-.39.3-.58.68-.58,1.13,0,.4.21.76.64,1.09.43.33,1.18.66,2.27,1.01,1.08.35,1.97.72,2.66,1.12,1.69.97,2.54,2.32,2.54,4.03,0,1.37-.52,2.44-1.55,3.22-1.03.78-2.45,1.17-4.24,1.17-1.27,0-2.42-.23-3.44-.68-1.03-.45-1.8-1.08-2.32-1.87-.52-.79-.78-1.7-.78-2.73h3.78c0,.84.22,1.46.65,1.85s1.14.6,2.11.6c.62,0,1.12-.13,1.48-.4s.54-.65.54-1.13Z"/>
        <path class="cls-6" d="m206.06,31.77h-2.04v5.53h-3.77v-15.64h6.16c1.85,0,3.3.41,4.35,1.23,1.04.82,1.57,1.99,1.57,3.49,0,1.09-.22,1.99-.66,2.7s-1.13,1.29-2.07,1.74l3.27,6.32v.16h-4.04l-2.76-5.53Zm-2.04-2.9h2.38c.72,0,1.25-.19,1.62-.57s.54-.9.54-1.58-.18-1.2-.55-1.59c-.37-.38-.9-.58-1.61-.58h-2.38v4.31Z"/>
        <path class="cls-6" d="m227.47,29.8c0,1.53-.28,2.88-.85,4.05-.57,1.17-1.37,2.08-2.41,2.71s-2.23.95-3.56.95-2.51-.31-3.54-.92-1.84-1.49-2.41-2.63-.88-2.45-.91-3.92v-.88c0-1.53.28-2.88.84-4.06s1.37-2.07,2.42-2.71c1.05-.64,2.24-.96,3.58-.96s2.51.32,3.54.95c1.04.63,1.85,1.53,2.42,2.69.58,1.16.87,2.5.88,4v.72Zm-3.83-.66c0-1.55-.26-2.73-.78-3.54s-1.26-1.21-2.23-1.21c-1.89,0-2.89,1.42-3,4.25v1.15c-.01,1.53.24,2.71.75,3.53.51.82,1.26,1.24,2.27,1.24s1.69-.4,2.2-1.21c.52-.81.78-1.97.78-3.49v-.72Z"/>
        <path class="cls-6" d="m241.16,31.46l1.79-9.81h3.74l-3.32,15.64h-3.91l-2.09-8.92-2.05,8.92h-3.9l-3.33-15.64h3.75l1.79,9.81,2.15-9.81h3.2l2.18,9.81Z"/>
        <path class="cls-6" d="m260.96,33.14c0-.55-.2-.98-.58-1.29-.39-.31-1.08-.63-2.06-.96-.98-.33-1.78-.65-2.41-.96-2.03-1-3.04-2.36-3.04-4.1,0-.87.25-1.63.76-2.29.5-.66,1.22-1.18,2.14-1.55.92-.37,1.96-.55,3.12-.55s2.13.2,3.02.6c.89.4,1.58.97,2.08,1.71s.74,1.59.74,2.54h-3.76c0-.64-.2-1.13-.58-1.48-.39-.35-.92-.53-1.58-.53s-1.21.15-1.59.45c-.39.3-.59.68-.59,1.13,0,.4.21.76.64,1.09.43.33,1.19.66,2.27,1.01,1.08.35,1.97.72,2.66,1.12,1.69.97,2.54,2.32,2.54,4.03,0,1.37-.52,2.44-1.55,3.22-1.03.78-2.45,1.17-4.24,1.17-1.27,0-2.42-.23-3.44-.68-1.03-.45-1.8-1.08-2.32-1.87-.52-.79-.78-1.7-.78-2.73h3.78c0,.84.22,1.46.65,1.85.43.4,1.14.6,2.11.6.62,0,1.12-.13,1.48-.4.36-.27.54-.65.54-1.13Z"/>
        <path class="cls-6" d="m279.36,37.3h-3.75v-6.53h-5.55v6.53h-3.77v-15.64h3.77v6.21h5.55v-6.21h3.75v15.64Z"/>
        <path class="cls-6" d="m294.62,29.8c0,1.53-.28,2.88-.85,4.05-.57,1.17-1.37,2.08-2.41,2.71s-2.23.95-3.56.95-2.51-.31-3.54-.92-1.83-1.49-2.41-2.63c-.58-1.14-.88-2.45-.91-3.92v-.88c0-1.53.28-2.88.84-4.06.56-1.17,1.37-2.07,2.42-2.71,1.05-.64,2.24-.96,3.58-.96s2.51.32,3.54.95c1.04.63,1.85,1.53,2.42,2.69.58,1.16.87,2.5.88,4v.72Zm-3.83-.66c0-1.55-.26-2.73-.78-3.54-.52-.81-1.26-1.21-2.23-1.21-1.89,0-2.89,1.42-3,4.25v1.15c-.01,1.53.24,2.71.75,3.53.51.82,1.26,1.24,2.27,1.24s1.69-.4,2.2-1.21c.52-.81.78-1.97.78-3.49v-.72Z"/>
        <path class="cls-6" d="m299.96,31.99v5.31h-3.77v-15.64h6.24c1.2,0,2.25.22,3.17.66.92.44,1.63,1.07,2.14,1.88.5.81.76,1.73.76,2.77,0,1.53-.55,2.74-1.64,3.66-1.09.91-2.59,1.37-4.5,1.37h-2.41Zm0-2.91h2.47c.73,0,1.29-.18,1.67-.55.38-.37.57-.88.57-1.55,0-.73-.2-1.31-.59-1.75-.39-.44-.93-.66-1.61-.67h-2.51v4.51Z"/>
      </g>
      <g>
        <g>
          <path class="cls-5" d="m0,9.79h50.81s-.83,6.1-11.11,9.53c-11.91,3.97-37.31,2.38-37.31,2.38L0,9.79Z"/>
          <g>
            <rect class="cls-1" x="20" y="-.27" width="4.23" height="29.77" transform="translate(13.08 -10.3) rotate(36.6)"/>
            <ellipse class="cls-5" cx="13.1" cy="26.86" rx="3.41" ry="2.3" transform="translate(-16.28 21.36) rotate(-53.4)"/>
          </g>
        </g>
        <g>
          <path class="cls-8" d="m58.6,9.79h50.81s-.83,6.1-11.11,9.53c-11.91,3.97-37.31,2.38-37.31,2.38l-2.38-11.91Z"/>
          <g>
            <rect class="cls-3" x="78.6" y="-.56" width="4.23" height="29.77" transform="translate(24.45 -45.3) rotate(36.6)"/>
            <ellipse class="cls-8" cx="71.85" cy="26.47" rx="3.51" ry="2.35" transform="translate(9.09 70.33) rotate(-55.17)"/>
          </g>
        </g>
        <g>
          <path class="cls-9" d="m.33,34.41h50.81s-.83,6.1-11.11,9.53c-11.91,3.97-37.31,2.38-37.31,2.38L.33,34.41Z"/>
          <g>
            <rect class="cls-4" x="20.34" y="24.46" width="4.23" height="29.77" transform="translate(27.89 -5.63) rotate(36.6)"/>
            <ellipse class="cls-9" cx="13.1" cy="51.87" rx="3.51" ry="2.35" transform="translate(-36.96 33) rotate(-55.17)"/>
          </g>
        </g>
        <g>
          <path class="cls-7" d="m58.93,34.41h50.81s-.83,6.1-11.11,9.53c-11.91,3.97-37.31,2.38-37.31,2.38l-2.38-11.91Z"/>
          <g>
            <rect class="cls-2" x="78.94" y="24.16" width="4.23" height="29.77" transform="translate(39.26 -40.62) rotate(36.6)"/>
            <ellipse class="cls-7" cx="71.85" cy="51.08" rx="3.51" ry="2.35" transform="translate(-11.11 80.89) rotate(-55.17)"/>
          </g>
        </g>
      </g>
    </g>
  </g>
</svg>