<?xml version="1.0" encoding="UTF-8"?>
<svg id="Layer_2" data-name="Layer 2" xmlns="http://www.w3.org/2000/svg" viewBox="0 0 315 55.05">
  <defs>
    <style>
      .cls-1, .cls-2, .cls-3, .cls-4 {
        stroke: #1f1f1f;
        stroke-miterlimit: 10;
        stroke-width: 1.59px;
      }

      .cls-1, .cls-5 {
        fill: #f35325;
      }

      .cls-2, .cls-6 {
        fill: #ffba08;
      }

      .cls-7, .cls-3 {
        fill: #81bc06;
      }

      .cls-8 {
        fill: #fff;
        font-family: Roboto-Black, Roboto;
        font-size: 22px;
        font-weight: 800;
        letter-spacing: -.02em;
      }

      .cls-9, .cls-4 {
        fill: #05a6f0;
      }
    </style>
  </defs>
  <g id="Layer_1-2" data-name="Layer 1">
    <g>
      <text class="cls-8" transform="translate(124.79 37.3)"><tspan x="0" y="0">MIKE’S ROW SHOP</tspan></text>
      <g>
        <g>
          <path class="cls-5" d="m0,9.79h50.81s-.83,6.1-11.11,9.53c-11.91,3.97-37.31,2.38-37.31,2.38L0,9.79Z"/>
          <g>
            <rect class="cls-1" x="20" y="-.27" width="4.23" height="29.77" transform="translate(13.08 -10.3) rotate(36.6)"/>
            <ellipse class="cls-5" cx="13.1" cy="26.86" rx="3.41" ry="2.3" transform="translate(-16.28 21.36) rotate(-53.4)"/>
          </g>
        </g>
        <g>
          <path class="cls-7" d="m58.6,9.79h50.81s-.83,6.1-11.11,9.53c-11.91,3.97-37.31,2.38-37.31,2.38l-2.38-11.91Z"/>
          <g>
            <rect class="cls-3" x="78.6" y="-.56" width="4.23" height="29.77" transform="translate(24.45 -45.3) rotate(36.6)"/>
            <ellipse class="cls-7" cx="71.85" cy="26.47" rx="3.51" ry="2.35" transform="translate(9.09 70.33) rotate(-55.17)"/>
          </g>
        </g>
        <g>
          <path class="cls-9" d="m.33,34.41h50.81s-.83,6.1-11.11,9.53c-11.91,3.97-37.31,2.38-37.31,2.38L.33,34.41Z"/>
          <g>
            <rect class="cls-4" x="20.34" y="24.46" width="4.23" height="29.77" transform="translate(27.89 -5.63) rotate(36.6)"/>
            <ellipse class="cls-9" cx="13.1" cy="51.87" rx="3.51" ry="2.35" transform="translate(-36.96 33) rotate(-55.17)"/>
          </g>
        </g>
        <g>
          <path class="cls-6" d="m58.93,34.41h50.81s-.83,6.1-11.11,9.53c-11.91,3.97-37.31,2.38-37.31,2.38l-2.38-11.91Z"/>
          <g>
            <rect class="cls-2" x="78.94" y="24.16" width="4.23" height="29.77" transform="translate(39.26 -40.62) rotate(36.6)"/>
            <ellipse class="cls-6" cx="71.85" cy="51.08" rx="3.51" ry="2.35" transform="translate(-11.11 80.89) rotate(-55.17)"/>
          </g>
        </g>
      </g>
    </g>
  </g>
</svg>